<svg width="22" height="28" viewBox="0 0 22 28" fill="none" xmlns="http://www.w3.org/2000/svg">
<path d="M11 0C5.29657 0 0.656677 4.6399 0.656677 10.3433C0.656677 12.2209 1.49875 14.2403 1.53404 14.3255C1.806 14.9711 2.34264 15.9738 2.7296 16.5615L9.82148 27.307C10.1117 27.7475 10.5413 28 11 28C11.4588 28 11.8883 27.7475 12.1785 27.3076L19.271 16.5615C19.6586 15.9738 20.1946 14.9711 20.4666 14.3255C20.5019 14.2409 21.3433 12.2216 21.3433 10.3433C21.3433 4.6399 16.7034 0 11 0ZM19.3446 13.8534C19.1019 14.432 18.6024 15.3647 18.2549 15.8916L11.1625 26.6377C11.0225 26.8501 10.9781 26.8501 10.8382 26.6377L3.74568 15.8916C3.39827 15.3647 2.89875 14.4314 2.65598 13.8528C2.64564 13.8278 1.87354 11.9691 1.87354 10.3433C1.87354 5.311 5.96767 1.21686 11 1.21686C16.0323 1.21686 20.1265 5.311 20.1265 10.3433C20.1265 11.9715 19.3526 13.8351 19.3446 13.8534Z" fill="#ADA090"/>
<path d="M10.9999 4.86816C7.98028 4.86816 5.52405 7.32501 5.52405 10.344C5.52405 13.3631 7.98028 15.8199 10.9999 15.8199C14.0196 15.8199 16.4758 13.3631 16.4758 10.344C16.4758 7.32501 14.0196 4.86816 10.9999 4.86816ZM10.9999 14.6031C8.65199 14.6031 6.74091 12.6926 6.74091 10.344C6.74091 7.9955 8.65199 6.08503 10.9999 6.08503C13.3479 6.08503 15.2589 7.9955 15.2589 10.344C15.2589 12.6926 13.3479 14.6031 10.9999 14.6031Z" fill="#ADA090"/>
</svg>
