<svg width="40" height="56" fill="none" xmlns="http://www.w3.org/2000/svg"><path d="M37.773 51.078v-3.281h-3.615v1.64h1.975v1.641H30.46v1.64h7.585v1.641H1.953v-1.64H9.54v-1.64H3.867v-1.642h1.975v-1.64H2.227v3.281H.313V56h39.374v-4.922h-1.914z" fill="#ADA090"/><path d="M.313 26.36c0 6.995 2.02 13.582 5.686 18.546 3.722 5.038 8.694 7.813 14.001 7.813 5.196 0 10.094-2.677 13.792-7.536 3.636-4.778 5.725-11.164 5.884-17.984l-1.64-.039c-.15 6.477-2.122 12.525-5.55 17.03-3.38 4.442-7.814 6.888-12.486 6.888-9.95 0-18.047-11.089-18.047-24.719S10.05 1.641 20 1.641c4.672 0 9.106 2.446 12.487 6.889 3.427 4.504 5.398 10.551 5.549 17.028l1.64-.038c-.159-6.82-2.248-13.207-5.884-17.984a23.85 23.85 0 00-.783-.974h3.397V0h-6.563v3.513C26.883 1.223 23.51 0 20 0c-3.517 0-6.887 1.22-9.843 3.51V0H3.594v6.563H6.99c-.338.4-.669.816-.99 1.25C2.332 12.777.313 19.363.313 26.36zM31.484 1.64h3.281v3.282h-3.28V1.64zm-26.25 0h3.282v3.282H5.235V1.64z" fill="#ADA090"/><path d="M6.191 14.136c-1.65 3.792-2.597 8.248-2.597 12.223 0 9.307 5.214 23.078 16.406 23.078 11.192 0 16.406-13.77 16.406-23.078 0-9.307-5.214-23.078-16.406-23.078-2.866 0-5.503.913-7.836 2.714-2.027 1.565-3.778 3.758-5.203 6.518l1.458.753C10.384 9.459 13.989 4.922 20 4.922c5.624 0 9.123 4.025 11.067 7.402 2.281 3.96 3.698 9.339 3.698 14.035 0 4.697-1.417 10.075-3.698 14.036-1.944 3.377-5.443 7.402-11.067 7.402-5.624 0-9.123-4.025-11.067-7.402-2.281-3.96-3.698-9.339-3.698-14.036 0-3.758.897-7.975 2.46-11.569l-1.504-.654z" fill="#ADA090"/><path d="M13.704 32.671l3.744-7.024 1.447.77-3.744 7.026-1.447-.772zm4.544-8.449l.773-1.447 1.447.773-.773 1.447-1.447-.773zm1.256 4.973l5.285-9.919 1.447.772-5.285 9.918-1.447-.771zM11.542 41.25c.363.503.746.974 1.138 1.4l1.208-1.11c-.348-.378-.69-.8-1.016-1.251l-1.33.96zm2.407 2.61c.468.386.956.728 1.45 1.016l.825-1.418a9.208 9.208 0 01-1.23-.863l-1.045 1.264zm18.116-25.21c-.868-2.967-2.13-5.584-3.653-7.566l-1.301 1c1.4 1.822 2.568 4.252 3.38 7.027l1.574-.46zm-7.031-8.697c.361.282.721.606 1.068.962l1.174-1.146a12.399 12.399 0 00-1.232-1.109l-1.01 1.293z" fill="#ADA090"/></svg>