<svg width="58" height="58" fill="none" xmlns="http://www.w3.org/2000/svg"><path d="M2.86.68A2.863 2.863 0 000 3.54v3.349c0 1.984.897 3.761 2.305 4.95v7.444a.85.85 0 001.7 0v-6.404a6.524 6.524 0 003.398.424v31.142c0 .469.38.85.85.85h41.494a.85.85 0 00.85-.85V13.303a6.504 6.504 0 003.398-.423v21.884a.85.85 0 001.7 0V11.84A6.468 6.468 0 0058 6.889v-3.35A2.863 2.863 0 0055.14.68H2.86zm46.038 24.847v3.172H9.102v-3.172h39.796zm-22.598-1.7H13.934v-5.724a1.3 1.3 0 011.298-1.299h9.77a1.3 1.3 0 011.298 1.299v5.725zm6.969 0c.117-2.103.6-3.724 1.01-4.757a2.593 2.593 0 012.423-1.643h4.42c1.076 0 2.027.645 2.424 1.643.41 1.033.892 2.654 1.01 4.758H33.268zm12.986 0c-.12-2.374-.666-4.216-1.13-5.384a4.284 4.284 0 00-4.003-2.715h-4.42a4.284 4.284 0 00-4.003 2.715c-.464 1.168-1.01 3.01-1.13 5.385h-3.57v-5.725a3.002 3.002 0 00-2.998-2.998h-9.769a3.001 3.001 0 00-2.998 2.998v5.725H9.102V12.815c.048-.021.094-.044.14-.066a6.467 6.467 0 002.87-2.651l.068.114a6.526 6.526 0 004.405 3.053c.38.068.768.104 1.155.104 2.242 0 4.403-1.234 5.558-3.153.024-.04.049-.08.072-.122.031.055.064.11.097.164 1.16 1.892 3.312 3.111 5.533 3.111 2.106 0 4.153-1.081 5.35-2.829.099-.144.193-.293.28-.446.023.04.185.304.245.393 1.18 1.761 3.252 2.882 5.385 2.882 2.086 0 4.14-1.079 5.332-2.803.034-.048.282-.444.297-.468a6.465 6.465 0 002.87 2.652l.139.065v11.013h-2.643zM45.041 6.89c0 2.59-2.19 4.78-4.781 4.78-2.59 0-4.78-2.174-4.78-4.781v-4.51h9.56v4.51zm-11.26 0c0 2.585-2.198 4.78-4.781 4.78a4.789 4.789 0 01-4.78-4.78V2.38h9.56v4.51zm-11.26 0a4.786 4.786 0 01-5.508 4.725 4.788 4.788 0 01-4.054-4.725V2.38h9.561v4.51zm-20.822 0V3.54c0-.64.52-1.16 1.16-1.16h8.401v4.51c0 2.2-1.619 4.179-3.756 4.665-2.936.669-5.805-1.674-5.805-4.665zm12.235 36.706v-3.252a5.343 5.343 0 014.137-5.222l3.098-.728a1.11 1.11 0 011.351 1.072v8.13h-8.586zm14.065 0v-5.812a2.36 2.36 0 012.358-2.357h11.87a2.36 2.36 0 012.357 2.357v5.812H28zm18.284 0v-5.812a4.061 4.061 0 00-4.056-4.057h-11.87a4.062 4.062 0 00-4.057 4.057v5.812h-2.08v-8.13c0-1.765-1.724-3.129-3.44-2.726l-3.098.728a7.037 7.037 0 00-5.448 6.876v3.252H9.102V30.398h39.796v13.197h-2.615zM56.301 6.89c0 2.59-2.195 4.78-4.78 4.78-2.572 0-4.781-2.178-4.781-4.78V2.38h8.4c.64 0 1.16.52 1.16 1.16v3.35z" fill="#ADA090"/><path d="M55.694 48.81V38.163a.85.85 0 00-1.699 0v10.53H4.005V22.682a.85.85 0 10-1.7 0V48.81A3.16 3.16 0 000 51.848v3.313c0 1.157.942 2.098 2.099 2.098H55.9A2.101 2.101 0 0058 55.16v-3.312a3.16 3.16 0 00-2.306-3.038zm.607 6.35a.4.4 0 01-.4.4H2.1a.4.4 0 01-.4-.4v-3.312c0-.803.653-1.456 1.456-1.456h51.69c.803 0 1.456.653 1.456 1.456v3.313z" fill="#ADA090"/></svg>