<svg width="57" height="58" fill="none" xmlns="http://www.w3.org/2000/svg"><path d="M11.423 48.031c-2.317 0-4.56.68-6.489 1.965l1.005 1.508a9.863 9.863 0 015.484-1.66h.715a9.86 9.86 0 015.484 1.66l1.005-1.508a11.66 11.66 0 00-6.488-1.965h-.716zm3.604-1.285l1 .333.573-1.72-1-.332a12.136 12.136 0 00-7.638 0l-1 .332.574 1.72 1-.334c2.097-.698 4.394-.7 6.49.001z" fill="#ADA090"/><path d="M45.047 36.516a.905.905 0 00-1.281 0l-1.172 1.171-1.438-1.437 2.078-2.078a.905.905 0 000-1.281L11.516 1.17a.902.902 0 00-.641-.265 9.588 9.588 0 00-6.828 2.829l-.312.31a9.597 9.597 0 00-2.829 6.83.9.9 0 00.266.64l4.372 4.372a.912.912 0 00-.106.425v5.239a35.427 35.427 0 00-3.625 15.555v19.988h1.812V37.105a33.6 33.6 0 011.813-10.811v5.425a4.536 4.536 0 004.53 4.531h3.626a4.536 4.536 0 004.531-4.531v-3.25l.9.9a33.41 33.41 0 01.913 7.736v19.989h1.812V37.105c0-1.825-.158-3.647-.44-5.451l11.58 11.58a.9.9 0 001.282 0l2.078-2.078 1.437 1.438-1.171 1.172a.905.905 0 000 1.281l11.78 11.781 1.282-1.281-11.14-11.14 5.968-5.97 11.14 11.141 1.282-1.281-11.781-11.781zm-7.36.64h-8.312l-1.812-1.812H39.5l-1.813 1.812zM25.75 33.531l-1.812-1.812H39.5l1.812 1.812H25.75zm-2.563-18.125H7.625l-1.812-1.812h15.562l1.812 1.812zM25 17.22l1.812 1.812H11.25L9.438 17.22H25zm3.625 3.625l1.812 1.812H14.875l-1.812-1.812h15.562zm3.625 3.625l1.812 1.812H18.5l-1.812-1.812H32.25zm3.625 3.625l1.812 1.812H22.125l-1.812-1.812h15.562zm-21.75-21.75l1.812 1.812H3.208c.237-.641.556-1.25.955-1.812h9.962zM12.31 4.53H5.86a7.777 7.777 0 014.648-1.804l1.804 1.804zM2.777 9.97H17.75l1.812 1.812H4l-1.273-1.273c.008-.181.029-.36.05-.54zm13.535 21.75a2.722 2.722 0 01-2.718 2.718H9.969A2.722 2.722 0 017.25 31.72V17.594l9.063 9.062v5.063zm17.22 9.593l-2.344-2.343h4.687l-2.344 2.343zm4-1.437l2.343-2.344 1.437 1.438-2.343 2.343-1.438-1.437z" fill="#ADA090"/><path d="M45.047 42.328l-1.281-1.281-2.72 2.719a.905.905 0 000 1.28l11.782 11.782 1.281-1.281-11.14-11.14 2.078-2.079z" fill="#ADA090"/></svg>