<svg width="57" height="57" fill="none" xmlns="http://www.w3.org/2000/svg"><g clip-path="url(#clip0)" fill="#ADA090"><path d="M51.127 17.555h-4.623c-.56 0-1.09.122-1.568.34v-1.46C44.936 7.373 37.563 0 28.5 0c-9.061 0-16.433 7.373-16.433 16.435v1.46a3.793 3.793 0 00-1.57-.34H5.872a3.82 3.82 0 00-3.813 3.817 3.818 3.818 0 003.813 3.814h.993v13.246c0 .62.503 1.123 1.123 1.123h4.215a4.72 4.72 0 004.575 3.59h7.539v5.36c-1.306.371-2.51.918-3.548 1.622-2.213 1.503-3.432 3.545-3.432 5.75 0 .62.503 1.123 1.122 1.123h20.08c.62 0 1.122-.503 1.122-1.123 0-2.205-1.219-4.247-3.432-5.75-1.038-.704-2.242-1.25-3.548-1.622v-5.36h7.538a4.722 4.722 0 004.58-3.59h4.21c.62 0 1.123-.503 1.123-1.123V25.186h.994a3.818 3.818 0 003.813-3.814 3.82 3.82 0 00-3.813-3.817zm-8.437-1.12v9.142a2 2 0 01-1.996 1.997h-4.978V4.222c4.172 2.474 6.974 7.022 6.974 12.213zm-13.067 11.14v-7.042a1.123 1.123 0 10-2.246 0v7.041h-3.845V3.144a14.081 14.081 0 013.845-.854v8.246a1.123 1.123 0 102.246 0V2.29c1.343.105 2.635.4 3.848.855v24.43h-3.848zm-3.06 6.145v-3.9h3.874v3.9h-3.874zm-12.25-17.285c0-5.192 2.803-9.74 6.974-12.214v23.353H16.31a2 2 0 01-1.997-1.997v-9.142zM4.305 21.372c0-.866.703-1.571 1.568-1.571h4.623a1.57 1.57 0 11.001 3.139H5.872a1.57 1.57 0 01-1.568-1.568zm4.807 3.814h1.385c.56 0 1.091-.122 1.57-.34v.731a4.247 4.247 0 004.243 4.243h8.008v3.9h-7.539a4.72 4.72 0 00-4.575 3.59H9.112V25.186zm28.126 29.569H19.762c.33-1.024 1.108-1.981 2.27-2.77 1.029-.699 2.27-1.207 3.63-1.502l.014-.003a13.394 13.394 0 012.824-.297c.976 0 1.925.102 2.824.297l.014.003c1.36.295 2.601.803 3.63 1.502 1.162.789 1.94 1.746 2.27 2.77zm-6.801-6.698a15.92 15.92 0 00-3.874 0v-4.912h3.874v4.912zM40.22 40.9H16.78a2.47 2.47 0 01-2.467-2.468 2.47 2.47 0 012.466-2.467h23.442a2.471 2.471 0 012.47 2.467 2.471 2.471 0 01-2.47 2.468zm7.667-3.59H44.8a4.722 4.722 0 00-4.578-3.59h-7.539v-3.9h8.012a4.247 4.247 0 004.242-4.243v-.73a3.785 3.785 0 001.568.339h1.384v12.123zm3.24-14.37h-4.624a1.57 1.57 0 010-3.14h4.623a1.57 1.57 0 010 3.14z"/><path d="M28.5 14.4c-.62 0-1.123.503-1.123 1.123v.023a1.123 1.123 0 002.246 0v-.022c0-.62-.503-1.123-1.123-1.123z"/></g><defs><clipPath id="clip0"><path fill="#fff" d="M0 0h57v57H0z"/></clipPath></defs></svg>