<svg width="74" height="58" fill="none" xmlns="http://www.w3.org/2000/svg"><path d="M73.204 6.2C69.819 2.825 64.331.968 57.749.968c-2.875-.013-5.728.5-8.418 1.513-7.873 2.996-17.194 4.58-26.956 4.58H10.358l-8.367-2.39A1.219 1.219 0 00.437 5.844V27.78a1.219 1.219 0 001.554 1.172l8.367-2.39s20.142-.08 22.713.098l-1.584 4.226a2.436 2.436 0 001.804 3.245l1.362.272L29.35 48.39a6.378 6.378 0 005.964 8.64h.488a6.393 6.393 0 006.006-4.232l7.85-21.961a23.63 23.63 0 008.091 1.392c5.893 0 11.67-2.252 15.455-6.023a1.218 1.218 0 00.359-.863V7.062a1.22 1.22 0 00-.359-.863zM56.5 16.812c-1.488 0-2.438-.722-2.438-1.22 0-.496.95-1.218 2.438-1.218 1.488 0 2.438.722 2.438 1.219 0 .497-.95 1.219-2.438 1.219zM2.875 26.075V7.55a10.089 10.089 0 010 18.527zm7.313-1.951c-.114 0-.227.016-.336.047l-1.088.31a12.455 12.455 0 000-15.34l1.088.31c.11.032.222.048.335.048h10.97v14.625h-10.97zm23.58 7.617l1.812-4.83c.608.082 1.21.178 1.802.296l-1.853 4.886-1.76-.352zm5.746 20.237a3.95 3.95 0 01-3.712 2.615h-.487a3.94 3.94 0 01-3.686-5.339l8.196-21.616.027-.078a2.094 2.094 0 00-1.57-2.657c-3.247-.695-6.668-.822-10.06-.822-1.001 0-4.08.034-4.628.038V9.492C33.207 9.365 42.381 7.736 50.2 4.76a20.657 20.657 0 015.02-1.21v8.512c-2.093.411-3.595 1.816-3.595 3.533 0 1.717 1.502 3.121 3.595 3.533V29.65a20.653 20.653 0 01-5.02-1.21l-.012-.005a2.05 2.05 0 00-.218-.069c-2.477-.984-5.425-1.856-6.295-2.107L43 28.6c.647.187 2.48.728 4.37 1.396l-7.856 21.983zm31.611-27.153c-3.34 3.117-8.298 4.966-13.376 4.966h-.091V19.148c2.157-.38 3.717-1.805 3.717-3.555 0-1.75-1.56-3.176-3.717-3.556v-8.63l.091-.002c5.696 0 10.42 1.48 13.376 4.178v17.242z" fill="#ADA090"/></svg>