<svg width="58" height="58" fill="none" xmlns="http://www.w3.org/2000/svg"><path d="M29 8.974a1.03 1.03 0 100-2.06 1.03 1.03 0 000 2.06zm5.127-.001a1.03 1.03 0 10-.147-2.056 1.03 1.03 0 00.147 2.056zM25 8.053a1.03 1.03 0 10-2.05-.204 1.03 1.03 0 002.05.204zm4 10.076a1.03 1.03 0 100-2.06 1.03 1.03 0 000 2.06zm5.128.003a1.03 1.03 0 10-.147-2.056 1.03 1.03 0 00.147 2.056zm-9.13-.92a1.03 1.03 0 10-2.05-.204 1.03 1.03 0 002.05.204zm5.49-4.232a1.031 1.031 0 002.06 0 1.031 1.031 0 00-2.06 0zm5.035 0a1.031 1.031 0 002.06 0 1.031 1.031 0 00-2.06 0zm-10.07 0a1.031 1.031 0 101.03-1.03c-.568 0-1.03.462-1.03 1.03zm-5.035 0a1.031 1.031 0 101.03-1.03 1.03 1.03 0 00-1.03 1.03zM5.264 29a2.684 2.684 0 002.68 2.68A2.684 2.684 0 0010.625 29a2.684 2.684 0 00-2.68-2.68A2.683 2.683 0 005.263 29zm3.662 0a.983.983 0 01-1.963 0 .982.982 0 011.963 0zm41.13 2.68a2.684 2.684 0 002.68-2.68 2.684 2.684 0 00-2.68-2.68 2.684 2.684 0 00-2.68 2.68 2.684 2.684 0 002.68 2.68zm0-3.661a.982.982 0 010 1.962.983.983 0 01-.982-.981c0-.541.44-.981.982-.981z" fill="#ADA090"/><path d="M50.056 21.284c-.655 0-1.29.083-1.897.237v-7.249a.85.85 0 10-1.699 0v7.904A7.721 7.721 0 0042.34 29v1.393a4.26 4.26 0 00-2.583-.87H18.243a4.26 4.26 0 00-2.583.87V29a7.722 7.722 0 00-4.12-6.824V7.716a6.023 6.023 0 016.016-6.017h22.888a6.023 6.023 0 016.016 6.017v2.569a.85.85 0 101.7 0v-2.57C48.16 3.462 44.697 0 40.443 0H17.556c-4.254 0-7.715 3.461-7.715 7.716V21.52a7.706 7.706 0 00-1.897-.237C3.69 21.284.23 24.746.23 29a7.685 7.685 0 005.264 7.316v3.79a.85.85 0 101.7 0v-3.428a7.662 7.662 0 003.839-.605.85.85 0 10-.681-1.557 6.057 6.057 0 01-3.79.34l-.02-.007A5.993 5.993 0 011.927 29a6.023 6.023 0 016.016-6.016A6.023 6.023 0 0113.961 29v23.41h-3.042a3.731 3.731 0 01-3.727-3.727v-4.59a.85.85 0 10-1.699 0v4.59a5.432 5.432 0 005.426 5.426h1.096v1.096A2.798 2.798 0 0014.81 58a2.798 2.798 0 002.795-2.795v-1.096h22.79v1.096A2.798 2.798 0 0043.19 58a2.798 2.798 0 002.795-2.795v-1.096h1.096a5.432 5.432 0 005.426-5.426v-4.59a.85.85 0 10-1.7 0v4.59a3.731 3.731 0 01-3.726 3.727h-3.042V29a6.023 6.023 0 016.017-6.016A6.023 6.023 0 0156.072 29c0 2.795-1.897 5.2-4.612 5.85-.007.001-.014.004-.02.006a6.06 6.06 0 01-3.79-.34.85.85 0 10-.681 1.557 7.661 7.661 0 003.839.605v3.428a.85.85 0 101.699 0v-3.79A7.685 7.685 0 0057.77 29c0-4.255-3.46-7.716-7.715-7.716zM15.66 52.41v-3.64h26.68v3.64H15.66zm0-10.68v-3.641h26.68v3.64H15.66zm26.68 1.699v3.64H15.66v-3.64h26.68zM18.243 31.223h21.514a2.586 2.586 0 012.583 2.583v2.584H15.66v-2.586a2.586 2.586 0 012.583-2.581zm-2.337 23.982a1.097 1.097 0 01-2.191 0v-1.096h2.191v1.096zm28.38-1.096v1.096a1.097 1.097 0 01-2.192 0v-1.096h2.191z" fill="#ADA090"/></svg>