<svg width="66" height="36" fill="none" xmlns="http://www.w3.org/2000/svg"><path d="M64.246 12.786c-.505-.24-.991-.48-1.46-.721-3.285-1.69-5.748-3.43-8.139-5.12-3.902-2.759-7.272-5.141-12.927-6.37A33.076 33.076 0 0039.596.19a1.075 1.075 0 00-.224-.02h-.075a7.572 7.572 0 00-6.063 3.06.398.398 0 01-.327.16.389.389 0 01-.327-.16A7.564 7.564 0 0026.096.18c-.219.011-1.303.21-1.628.274h-.001a27.465 27.465 0 00-5.064 1.494 1.084 1.084 0 00.815 2.009 25.33 25.33 0 014.67-1.376c.38-.075 1.242-.244 1.628-.244 1.475 0 2.84.585 3.847 1.625.538.555 1.037 1.596 2.544 1.596a2.55 2.55 0 002.071-1.04 5.39 5.39 0 014.319-2.181h.003c.67.1 1.33.22 1.96.357 4.897 1.064 8.019 3.12 11.446 5.534 3.08 2.169 5.362 3.819 8.835 5.633-5.466 1.854-12.249 2.753-17.93 2.318-2.95-.226-5.535-.807-7.631-1.705a13.155 13.155 0 01-2.543-1.417 1.084 1.084 0 00-1.272 0c-.296.214-.61.419-.94.613-2.66 1.561-6.134 2.271-9.234 2.509-5.682.435-12.464-.464-17.93-2.317 3.314-1.732 5.86-3.531 8.145-5.147 1.396-.987 2.714-1.919 4.09-2.758a1.084 1.084 0 10-1.13-1.85c-1.438.877-2.785 1.83-4.212 2.838-2.732 1.931-5.558 3.929-9.597 5.84l-.003.002a2.424 2.424 0 00-.21.114l-.063.04a2.379 2.379 0 00-.32.246l-.07.065-.023.022c-.014.014-.026.03-.039.045a2.28 2.28 0 00-.202 2.902c3.16 4.44 6.777 9.043 11.807 12.626 5.877 4.187 12.604 6.222 20.567 6.222 4.715 0 9.101-.744 13.038-2.213a1.084 1.084 0 00-.757-2.031c-3.694 1.378-7.826 2.076-12.28 2.076-16.009 0-23.984-8.753-30.092-17.216 5.713 2.047 12.932 3.08 19.024 2.684 2.46 1.831 6.548 2.915 11.067 2.915 4.52 0 8.609-1.084 11.068-2.916.86.056 1.74.085 2.639.085 5.46 0 11.478-1.01 16.384-2.769-2.88 3.993-6.174 8.062-10.58 11.252a1.084 1.084 0 001.27 1.757c4.926-3.566 8.483-8.102 11.591-12.47.852-1.191.381-2.82-.927-3.437zM32.8 19.116c-2.719 0-5.293-.434-7.312-1.193 2.558-.458 5.144-1.282 7.312-2.677 2.177 1.4 4.785 2.224 7.313 2.677-2.02.759-4.594 1.194-7.313 1.194z" fill="#ADA090"/></svg>