<svg width="28" height="28" viewBox="0 0 28 28" fill="none" xmlns="http://www.w3.org/2000/svg">
<path d="M14 0C8.29657 0 3.65668 4.6399 3.65668 10.3433C3.65668 12.2209 4.49875 14.2403 4.53404 14.3255C4.806 14.9711 5.34264 15.9738 5.7296 16.5615L12.8215 27.307C13.1117 27.7475 13.5413 28 14 28C14.4588 28 14.8883 27.7475 15.1785 27.3076L22.271 16.5615C22.6586 15.9738 23.1946 14.9711 23.4666 14.3255C23.5019 14.2409 24.3433 12.2216 24.3433 10.3433C24.3433 4.6399 19.7034 0 14 0ZM22.3446 13.8534C22.1019 14.432 21.6024 15.3647 21.2549 15.8916L14.1625 26.6377C14.0225 26.8501 13.9781 26.8501 13.8382 26.6377L6.74568 15.8916C6.39827 15.3647 5.89875 14.4314 5.65598 13.8528C5.64564 13.8278 4.87354 11.9691 4.87354 10.3433C4.87354 5.311 8.96767 1.21686 14 1.21686C19.0323 1.21686 23.1265 5.311 23.1265 10.3433C23.1265 11.9715 22.3526 13.8351 22.3446 13.8534Z" fill="#ADA090"/>
<path d="M13.9999 4.86816C10.9803 4.86816 8.52405 7.32501 8.52405 10.344C8.52405 13.3631 10.9803 15.8199 13.9999 15.8199C17.0196 15.8199 19.4758 13.3631 19.4758 10.344C19.4758 7.32501 17.0196 4.86816 13.9999 4.86816ZM13.9999 14.6031C11.652 14.6031 9.74091 12.6926 9.74091 10.344C9.74091 7.9955 11.652 6.08503 13.9999 6.08503C16.3479 6.08503 18.2589 7.9955 18.2589 10.344C18.2589 12.6926 16.3479 14.6031 13.9999 14.6031Z" fill="#ADA090"/>
</svg>
