<svg width="155" height="155" viewBox="0 0 155 155" fill="none" xmlns="http://www.w3.org/2000/svg">
<circle cx="77" cy="78" r="67.5" stroke="#ADA090"/>
<circle cx="77.5" cy="77.5" r="77" stroke="#ADA090"/>
<g clip-path="url(#clip0)">
<path d="M81.9995 66C81.7235 66 81.4995 66.224 81.4995 66.5C81.4995 66.776 81.7235 67 81.9995 67C87.5135 67 91.9995 71.4859 91.9995 77C91.9995 77.2759 92.2235 77.4999 92.4994 77.4999C92.7759 77.4999 92.9994 77.2759 92.9994 77C92.9994 70.9345 88.065 66 81.9995 66Z" fill="#ADA090"/>
<path d="M81.9995 69C81.7235 69 81.4995 69.224 81.4995 69.5C81.4995 69.776 81.7235 70 81.9995 70C85.8594 70 88.9995 73.1399 88.9995 77C88.9995 77.2759 89.2235 77.4999 89.4994 77.4999C89.7759 77.4999 89.9994 77.2759 89.9994 77C89.9994 72.589 86.4109 69 81.9995 69Z" fill="#ADA090"/>
<path d="M81.9995 72.0001C81.7235 72.0001 81.4995 72.2241 81.4995 72.5001C81.4995 72.7761 81.7235 73.0001 81.9995 73.0001C84.205 73.0001 85.9995 74.7946 85.9995 77.0001C85.9995 77.2761 86.2235 77.5001 86.4994 77.5001C86.776 77.5001 86.9994 77.2761 86.9994 77.0001C86.9994 74.2431 84.7564 72.0001 81.9995 72.0001Z" fill="#ADA090"/>
<path d="M90.0569 84.7624C88.6964 84.5834 87.3549 84.2494 86.0699 83.7709C84.8254 83.3044 83.4114 83.6054 82.4644 84.5399L80.8839 86.1169C77.5699 84.1629 74.8014 81.3999 72.8429 78.0924L74.4244 76.5144C75.3594 75.5709 75.6614 74.1584 75.1939 72.9169C74.7145 71.634 74.3799 70.2955 74.1999 68.9329C73.9604 67.2439 72.4979 65.9934 70.7885 65.9999H66.414C66.312 65.9999 66.2099 66.0049 66.109 66.0139C65.2004 66.0959 64.378 66.5264 63.7934 67.2254C63.209 67.9249 62.9319 68.8099 63.015 69.7254C63.4995 74.2794 65.0745 78.7179 67.567 82.5579C69.83 86.1119 72.9085 89.1844 76.4659 91.4404C80.299 93.9214 84.7254 95.4929 89.2769 95.9864C89.3799 95.9954 89.4834 95.9998 89.5874 95.9998C89.5904 95.9998 89.5934 95.9998 89.5969 95.9998C91.4809 95.9918 93.0069 94.4558 92.9994 92.5773V88.2178C93.0389 86.4894 91.7769 85.0044 90.0569 84.7624ZM91.9994 88.1999C91.9994 88.2038 91.9994 88.2084 91.9994 88.2123V92.5799C92.0044 93.9089 90.9249 94.9948 89.5934 95.0004C89.5154 94.9974 89.4404 94.9974 89.3744 94.9913C84.9874 94.5153 80.7114 92.9973 77.0049 90.5983C73.567 88.4178 70.595 85.4518 68.408 82.0168C65.9984 78.3049 64.4774 74.0179 64.0099 69.6274C63.9519 68.9864 64.1474 68.3615 64.5609 67.8669C64.9744 67.3724 65.5559 67.0679 66.1989 67.0099C66.2704 67.0034 66.342 66.9999 66.4139 66.9999H70.7929C70.8009 66.9999 70.8089 66.9999 70.8169 66.9999C72.0149 66.9999 73.0414 67.8874 73.2089 69.0684C73.3984 70.5009 73.7509 71.9139 74.2574 73.2684C74.5879 74.1464 74.3744 75.1444 73.7158 75.8089L71.8639 77.6569C71.7039 77.8164 71.6709 78.0624 71.7824 78.2584C73.9014 81.9784 76.9919 85.0624 80.7184 87.1769C80.9144 87.2884 81.1593 87.2544 81.3184 87.0959L83.1683 85.2499C83.8368 84.5904 84.8383 84.3779 85.7193 84.7079C87.0753 85.2129 88.4908 85.5654 89.9213 85.7534C91.1364 85.9244 92.0299 86.9759 91.9994 88.1999Z" fill="#ADA090"/>
<path d="M70.5001 68H66.4136C66.3716 68 66.3301 68.002 66.2886 68.006C65.7791 68.052 65.4676 68.341 65.3276 68.5085C65.2151 68.6429 64.9581 69.01 65.0031 69.514C65.1921 71.2875 65.5341 73.013 66.0206 74.643C66.0856 74.8595 66.2841 75 66.4996 75C66.5471 75 66.5951 74.9935 66.6431 74.979C66.9076 74.9 67.0581 74.6216 66.9791 74.3571C66.5101 72.786 66.1801 71.121 65.9986 69.4166C65.9871 69.2896 66.0696 69.1801 66.0951 69.1491C66.1361 69.1001 66.2276 69.0156 66.4136 69.0001H70.4991C70.4996 69.0001 70.4996 69.0001 70.4996 69.0001C70.7756 69.0001 70.9996 68.7766 70.9996 68.5006C71.0001 68.2245 70.7761 68 70.5001 68Z" fill="#ADA090"/>
<path d="M90.4995 88C90.2235 88 89.9995 88.224 89.9995 88.5L89.999 92.5794C89.9995 92.6919 89.9565 92.7979 89.878 92.8769C89.7995 92.9559 89.6955 92.9994 89.5965 92.9999L89.5505 92.9989C87.842 92.8134 86.191 92.4844 84.6435 92.0209C84.38 91.9414 84.1005 92.0919 84.021 92.3564C83.9415 92.6209 84.092 92.8994 84.3565 92.9789C85.9621 93.4599 87.6735 93.8009 89.4515 93.994C89.4926 93.9979 89.5761 93.9999 89.5881 93.9999C89.9666 93.9984 90.3215 93.8499 90.5881 93.5815C90.8546 93.3124 91.0006 92.9554 90.9991 92.5774L90.9995 88.5C90.9995 88.224 90.7755 88 90.4995 88Z" fill="#ADA090"/>
</g>
<defs>
<clipPath id="clip0">
<rect width="30" height="30" fill="white" transform="translate(63 66)"/>
</clipPath>
</defs>
</svg>
