<svg width="30" height="30" viewBox="0 0 30 30" fill="none" xmlns="http://www.w3.org/2000/svg">
<g clip-path="url(#clip0)">
<path d="M18.9995 0C18.7235 0 18.4995 0.224003 18.4995 0.499979C18.4995 0.775955 18.7235 0.999959 18.9995 0.999959C24.5135 0.999959 28.9995 5.48595 28.9995 11C28.9995 11.2759 29.2235 11.4999 29.4994 11.4999C29.7759 11.4999 29.9994 11.2759 29.9994 11C29.9994 4.93452 25.065 0 18.9995 0Z" fill="#ADA090"/>
<path d="M18.9995 3C18.7235 3 18.4995 3.224 18.4995 3.49998C18.4995 3.77596 18.7235 3.99996 18.9995 3.99996C22.8594 3.99996 25.9995 7.13993 25.9995 11C25.9995 11.2759 26.2235 11.4999 26.4994 11.4999C26.7759 11.4999 26.9994 11.2759 26.9994 11C26.9994 6.58904 23.4109 3 18.9995 3Z" fill="#ADA090"/>
<path d="M18.9995 6.00012C18.7235 6.00012 18.4995 6.22413 18.4995 6.5001C18.4995 6.77608 18.7235 7.00008 18.9995 7.00008C21.205 7.00008 22.9995 8.79457 22.9995 11.0001C22.9995 11.2761 23.2235 11.5001 23.4994 11.5001C23.776 11.5001 23.9994 11.2761 23.9994 11.0001C23.9994 8.24314 21.7564 6.00012 18.9995 6.00012Z" fill="#ADA090"/>
<path d="M27.0569 18.7624C25.6964 18.5834 24.3549 18.2494 23.0699 17.7709C21.8254 17.3044 20.4114 17.6054 19.4644 18.5399L17.8839 20.1169C14.5699 18.1629 11.8014 15.3999 9.84292 12.0924L11.4244 10.5144C12.3594 9.57094 12.6614 8.15842 12.1939 6.91694C11.7145 5.63397 11.3799 4.29546 11.1999 2.93292C10.9604 1.2439 9.49792 -0.00660071 7.78845 -9.68173e-05H3.41397C3.31196 -9.68173e-05 3.20994 0.00488364 3.10899 0.0139071C2.20043 0.0959382 1.37796 0.526426 0.793425 1.22545C0.208954 1.92494 -0.0680771 2.80994 0.0149501 3.7254C0.499461 8.27942 2.07446 12.7179 4.56697 16.5579C6.82998 20.1119 9.90849 23.1844 13.4659 25.4404C17.299 27.9214 21.7254 29.4929 26.2769 29.9864C26.3799 29.9954 26.4834 29.9998 26.5874 29.9998C26.5904 29.9998 26.5934 29.9998 26.5969 29.9998C28.4809 29.9918 30.0069 28.4558 29.9994 26.5773V22.2178C30.0389 20.4894 28.7769 19.0044 27.0569 18.7624ZM28.9994 22.1999C28.9994 22.2038 28.9994 22.2084 28.9994 22.2123V26.5799C29.0044 27.9089 27.9249 28.9948 26.5934 29.0004C26.5154 28.9974 26.4404 28.9974 26.3744 28.9913C21.9874 28.5153 17.7114 26.9973 14.0049 24.5983C10.567 22.4178 7.59497 19.4518 5.40797 16.0168C2.99842 12.3049 1.47745 8.01791 1.00993 3.62744C0.951921 2.98642 1.14745 2.36146 1.56094 1.86693C1.97444 1.3724 2.55592 1.06795 3.19893 1.00994C3.27041 1.00344 3.34196 0.999921 3.41391 0.999921H7.7929C7.80093 0.999921 7.8089 0.999921 7.81693 0.999921C9.01493 0.999921 10.0414 1.88744 10.2089 3.06839C10.3984 4.50089 10.7509 5.91388 11.2574 7.26839C11.5879 8.14635 11.3744 9.14438 10.7158 9.80889L8.86388 11.6569C8.70386 11.8164 8.67087 12.0624 8.78237 12.2584C10.9014 15.9784 13.9919 19.0624 17.7184 21.1769C17.9144 21.2884 18.1593 21.2544 18.3184 21.0959L20.1683 19.2499C20.8368 18.5904 21.8383 18.3779 22.7193 18.7079C24.0753 19.2129 25.4908 19.5654 26.9213 19.7534C28.1364 19.9244 29.0299 20.9759 28.9994 22.1999Z" fill="#ADA090"/>
<path d="M7.50009 2H3.41359C3.37158 2 3.3301 2.00199 3.28861 2.00598C2.77914 2.05197 2.4676 2.34096 2.32762 2.50848C2.21512 2.64295 1.95813 3.00998 2.00313 3.514C2.19215 5.28751 2.5341 7.01298 3.0206 8.64299C3.08558 8.8595 3.2841 9.00001 3.49961 9.00001C3.54713 9.00001 3.59511 8.9935 3.6431 8.97903C3.90759 8.90004 4.05812 8.62155 3.97908 8.35706C3.51009 6.78605 3.1801 5.12105 2.99857 3.41656C2.98709 3.28959 3.06959 3.18008 3.09508 3.14908C3.13609 3.1001 3.22756 3.0156 3.41359 3.00008H7.49909C7.49962 3.00008 7.49962 3.00008 7.49962 3.00008C7.77559 3.00008 7.9996 2.7766 7.9996 2.50057C8.00007 2.22447 7.77606 2 7.50009 2Z" fill="#ADA090"/>
<path d="M27.4995 22C27.2235 22 26.9995 22.224 26.9995 22.5L26.999 26.5794C26.9995 26.6919 26.9565 26.7979 26.878 26.8769C26.7995 26.9559 26.6955 26.9994 26.5965 26.9999L26.5505 26.9989C24.842 26.8134 23.191 26.4844 21.6435 26.0209C21.38 25.9414 21.1005 26.0919 21.021 26.3564C20.9415 26.6209 21.092 26.8994 21.3565 26.9789C22.9621 27.4599 24.6735 27.8009 26.4515 27.994C26.4926 27.9979 26.5761 27.9999 26.5881 27.9999C26.9666 27.9984 27.3215 27.8499 27.5881 27.5815C27.8546 27.3124 28.0006 26.9554 27.9991 26.5774L27.9995 22.5C27.9995 22.224 27.7755 22 27.4995 22Z" fill="#ADA090"/>
</g>
<defs>
<clipPath id="clip0">
<rect width="30" height="30" fill="white"/>
</clipPath>
</defs>
</svg>
