<svg width="21" height="19" fill="none" xmlns="http://www.w3.org/2000/svg"><path d="M21 6.058a.332.332 0 00-.003-.045v-.005A5.913 5.913 0 0015.093.316 5.905 5.905 0 0011.296 1.7a1.234 1.234 0 01-1.592 0A5.906 5.906 0 005.906.316 5.913 5.913 0 00.004 6.008v.005A.318.318 0 000 6.058v.164a.26.26 0 00.003.04v.005c.07 2.356 1.312 4.844 3.697 7.4 2.014 2.16 4.374 3.845 5.602 4.656a2.17 2.17 0 002.396 0c1.228-.811 3.588-2.495 5.602-4.655 2.384-2.557 3.627-5.045 3.697-7.4v-.005A.322.322 0 0021 6.222v-.164zm-4.18 7.162c-1.968 2.11-4.28 3.76-5.484 4.556a1.514 1.514 0 01-1.672 0C8.461 16.98 6.148 15.33 4.18 13.22 1.875 10.748.69 8.37.657 6.153v-.016A5.256 5.256 0 015.907.972a5.25 5.25 0 013.374 1.23 1.889 1.889 0 002.438 0 5.248 5.248 0 013.375-1.23 5.256 5.256 0 015.249 5.166v.016c-.033 2.218-1.218 4.595-3.523 7.066z" fill="#fff"/><path d="M8.201 2.244a4.596 4.596 0 00-2.295-.616.328.328 0 000 .657c.69 0 1.37.182 1.967.527a.326.326 0 00.448-.12.328.328 0 00-.12-.448zM19.15 4.061a.328.328 0 10-.58.31c.294.55.449 1.149.46 1.78-.018.975-.323 2.023-.907 3.113a.328.328 0 10.578.31c.635-1.185.966-2.335.985-3.417v-.012a4.603 4.603 0 00-.537-2.084zm-.825-.642a.328.328 0 00-.002-.464 4.585 4.585 0 00-1.301-.905.328.328 0 10-.276.596c.412.19.788.452 1.115.776a.327.327 0 00.464-.003z" fill="#fff"/></svg>