<svg width="30" height="30" fill="none" xmlns="http://www.w3.org/2000/svg"><circle cx="14.548" cy="14.548" r="14.048" stroke="url(#paint0_linear)"/><g clip-path="url(#clip0)"><path d="M11.143 20v-9.51h3.972c1.295 0 2.288.229 2.98.686.691.457 1.037 1.113 1.037 1.969 0 .439-.147.835-.44 1.186-.287.346-.709.612-1.265.8.68.129 1.213.384 1.6.764.392.375.588.838.588 1.39 0 .884-.334 1.558-1.002 2.02-.662.464-1.626.695-2.891.695h-4.58zm2.54-3.946v1.916h2.047c.897 0 1.345-.314 1.345-.94 0-.64-.427-.965-1.283-.976h-2.11zm0-1.705h1.573c.89-.012 1.336-.3 1.336-.862 0-.345-.123-.591-.37-.738-.24-.147-.609-.22-1.107-.22h-1.432v1.82z" fill="#ADA090"/></g><defs><linearGradient id="paint0_linear" x1="14.548" y1="0" x2="14.548" y2="29.096" gradientUnits="userSpaceOnUse"><stop stop-color="#ADA090"/><stop offset="1" stop-color="#665D52"/></linearGradient><clipPath id="clip0"><path fill="#fff" transform="translate(8.313 9.145)" d="M0 0h12.47v12.47H0z"/></clipPath></defs></svg>