<svg width="30" height="30" fill="none" xmlns="http://www.w3.org/2000/svg"><circle cx="14.548" cy="14.548" r="14.048" stroke="url(#paint0_linear)"/><g clip-path="url(#clip0)"><path d="M16.886 8.313H12.21a3.897 3.897 0 00-3.897 3.897v4.677a3.897 3.897 0 003.897 3.896h4.676a3.897 3.897 0 003.897-3.896V12.21a3.897 3.897 0 00-3.897-3.897zm2.728 8.574a2.73 2.73 0 01-2.728 2.727H12.21a2.73 2.73 0 01-2.728-2.727V12.21a2.73 2.73 0 012.728-2.727h4.676a2.73 2.73 0 012.728 2.727v4.677z" fill="#ADA090"/><path d="M14.548 11.431a3.118 3.118 0 100 6.235 3.118 3.118 0 000-6.235zm0 5.066a1.951 1.951 0 01-1.948-1.948 1.95 1.95 0 011.948-1.949 1.95 1.95 0 011.949 1.949 1.951 1.951 0 01-1.949 1.948z" fill="#ADA090"/><path d="M17.9 11.613a.415.415 0 100-.831.415.415 0 000 .83z" fill="#fff"/></g><defs><linearGradient id="paint0_linear" x1="14.548" y1="0" x2="14.548" y2="29.096" gradientUnits="userSpaceOnUse"><stop stop-color="#ADA090"/><stop offset="1" stop-color="#665D52"/></linearGradient><clipPath id="clip0"><path fill="#fff" transform="translate(8.313 8.313)" d="M0 0h12.47v12.47H0z"/></clipPath></defs></svg>