<svg width="70" height="74" fill="none" xmlns="http://www.w3.org/2000/svg"><path d="M60.919 3.113l8.162 22.232L32.453 73.15.7 48.823 37.329 1.017l23.59 2.096z" stroke="url(#paint0_linear)"/><circle cx="29.689" cy="30.72" r="4" transform="rotate(37.459 29.689 30.72)" stroke="url(#paint1_linear)"/><circle cx="33.081" cy="50.956" r="4" transform="rotate(37.459 33.08 50.956)" stroke="url(#paint2_linear)"/><path stroke="url(#paint3_linear)" d="M40.166 39.823l-19.628 2.598"/><circle cx="54.285" cy="11.772" r="4" transform="rotate(37.459 54.285 11.772)" stroke="url(#paint4_linear)"/><path stroke="url(#paint5_linear)" stroke-linecap="round" d="M54.893 10.978L63.407-.135"/><defs><linearGradient id="paint0_linear" x1="61.279" y1="2.643" x2="16.273" y2="61.384" gradientUnits="userSpaceOnUse"><stop stop-color="#ADA090"/><stop offset="1" stop-color="#665D52"/></linearGradient><linearGradient id="paint1_linear" x1="29.689" y1="26.22" x2="29.689" y2="35.22" gradientUnits="userSpaceOnUse"><stop stop-color="#ADA090"/><stop offset="1" stop-color="#665D52"/></linearGradient><linearGradient id="paint2_linear" x1="33.081" y1="46.456" x2="33.081" y2="55.456" gradientUnits="userSpaceOnUse"><stop stop-color="#ADA090"/><stop offset="1" stop-color="#665D52"/></linearGradient><linearGradient id="paint3_linear" x1="30.287" y1="40.627" x2="30.156" y2="39.635" gradientUnits="userSpaceOnUse"><stop stop-color="#ADA090"/><stop offset="1" stop-color="#665D52"/></linearGradient><linearGradient id="paint4_linear" x1="54.285" y1="7.272" x2="54.285" y2="16.272" gradientUnits="userSpaceOnUse"><stop stop-color="#ADA090"/><stop offset="1" stop-color="#665D52"/></linearGradient><linearGradient id="paint5_linear" x1="59.547" y1="5.725" x2="60.341" y2="6.334" gradientUnits="userSpaceOnUse"><stop stop-color="#ADA090"/><stop offset="1" stop-color="#665D52"/></linearGradient></defs></svg>