<svg width="56" height="58" fill="none" xmlns="http://www.w3.org/2000/svg"><path d="M.61.605l.065.01a303.044 303.044 0 009.148 1.29C15.455 2.612 22.48 3.32 28 3.32s12.545-.708 18.177-1.413A303.044 303.044 0 0055.325.615l.042-.007c-2.582 12.66-5.421 22.093-9.6 30.706-4.192 8.638-9.743 16.474-17.774 25.923-8.573-9.73-14.363-17.767-18.54-26.439C5.294 22.16 2.722 12.867.61.605z" stroke="url(#paint0_linear)"/><path d="M6.61 5.605a236.09 236.09 0 007.094 1.009c4.426.56 9.952 1.122 14.296 1.122 4.344 0 9.87-.562 14.296-1.122a236.086 236.086 0 007.072-1.005c-2.02 9.962-4.243 17.395-7.506 24.182-3.274 6.811-7.606 12.995-13.869 20.442-6.687-7.67-11.205-14.012-14.468-20.85-3.247-6.806-5.262-14.128-6.915-23.778z" stroke="url(#paint1_linear)"/><circle cx="28" cy="21" r="3.5" stroke="url(#paint2_linear)"/><defs><linearGradient id="paint0_linear" x1="28" y1="58" x2="28" y2="0" gradientUnits="userSpaceOnUse"><stop stop-color="#665D52"/><stop offset="1" stop-color="#ADA090"/></linearGradient><linearGradient id="paint1_linear" x1="28" y1="51" x2="28" y2="5" gradientUnits="userSpaceOnUse"><stop stop-color="#665D52"/><stop offset="1" stop-color="#ADA090"/></linearGradient><linearGradient id="paint2_linear" x1="28" y1="17" x2="28" y2="25" gradientUnits="userSpaceOnUse"><stop stop-color="#665D52"/><stop offset="1" stop-color="#ADA090"/></linearGradient></defs></svg>