<svg width="54" height="54" fill="none" xmlns="http://www.w3.org/2000/svg"><circle cx="2" cy="2.426" r="1.5" stroke="url(#paint0_linear)"/><circle cx="17" cy="51.426" r="1.5" stroke="url(#paint1_linear)"/><circle cx="46" cy="51.426" r="1.5" stroke="url(#paint2_linear)"/><path d="M4.404 4.33L9 8.926" stroke="url(#paint3_linear)"/><path d="M9 8.426v37" stroke="url(#paint4_linear)"/><rect x="13.5" y="23.926" width="40" height="21" rx="1.5" stroke="url(#paint5_linear)"/><path stroke="url(#paint6_linear)" d="M8 47.926h46"/><path stroke="url(#paint7_linear)" d="M20 35.926h10"/><path stroke="url(#paint8_linear)" d="M20 39.926h5"/><defs><linearGradient id="paint0_linear" x1="2" y1=".426" x2="2" y2="4.426" gradientUnits="userSpaceOnUse"><stop stop-color="#ADA090"/><stop offset="1" stop-color="#665D52" stop-opacity="0"/></linearGradient><linearGradient id="paint1_linear" x1="17" y1="49.426" x2="17" y2="53.426" gradientUnits="userSpaceOnUse"><stop stop-color="#ADA090"/><stop offset="1" stop-color="#665D52" stop-opacity="0"/></linearGradient><linearGradient id="paint2_linear" x1="46" y1="49.426" x2="46" y2="53.426" gradientUnits="userSpaceOnUse"><stop stop-color="#ADA090"/><stop offset="1" stop-color="#665D52" stop-opacity="0"/></linearGradient><linearGradient id="paint3_linear" x1="6.702" y1="6.628" x2="5.995" y2="7.335" gradientUnits="userSpaceOnUse"><stop stop-color="#ADA090"/><stop offset="1" stop-color="#665D52" stop-opacity="0"/></linearGradient><linearGradient id="paint4_linear" x1="9" y1="26.926" x2="8" y2="26.926" gradientUnits="userSpaceOnUse"><stop stop-color="#ADA090"/><stop offset="1" stop-color="#665D52" stop-opacity="0"/></linearGradient><linearGradient id="paint5_linear" x1="33.5" y1="23.426" x2="33.5" y2="45.426" gradientUnits="userSpaceOnUse"><stop stop-color="#ADA090"/><stop offset="1" stop-color="#665D52" stop-opacity="0"/></linearGradient><linearGradient id="paint6_linear" x1="31" y1="48.426" x2="31" y2="49.426" gradientUnits="userSpaceOnUse"><stop stop-color="#ADA090"/><stop offset="1" stop-color="#665D52" stop-opacity="0"/></linearGradient><linearGradient id="paint7_linear" x1="25" y1="36.426" x2="25" y2="37.426" gradientUnits="userSpaceOnUse"><stop stop-color="#ADA090"/><stop offset="1" stop-color="#665D52" stop-opacity="0"/></linearGradient><linearGradient id="paint8_linear" x1="22.5" y1="40.426" x2="22.5" y2="41.426" gradientUnits="userSpaceOnUse"><stop stop-color="#ADA090"/><stop offset="1" stop-color="#665D52" stop-opacity="0"/></linearGradient></defs></svg>