<svg width="30" height="30" fill="none" xmlns="http://www.w3.org/2000/svg"><circle cx="14.548" cy="14.548" r="14.048" stroke="url(#paint0_linear)"/><g clip-path="url(#clip0)"><path d="M16.883 9.978l-1.307-.002c-1.469 0-2.418.974-2.418 2.48V13.6h-1.314a.206.206 0 00-.205.206v1.657c0 .114.092.206.205.206h1.314v4.18c0 .114.092.206.206.206h1.714a.206.206 0 00.206-.205v-4.182h1.536a.206.206 0 00.206-.205v-1.657a.206.206 0 00-.205-.206h-1.537v-.97c0-.465.11-.702.718-.702h.88a.205.205 0 00.206-.206v-1.538a.206.206 0 00-.205-.206z" fill="#ADA090"/></g><defs><linearGradient id="paint0_linear" x1="14.548" y1="0" x2="14.548" y2="29.096" gradientUnits="userSpaceOnUse"><stop stop-color="#ADA090"/><stop offset="1" stop-color="#665D52"/></linearGradient><clipPath id="clip0"><path fill="#fff" transform="translate(8.313 9.145)" d="M0 0h12.47v12.47H0z"/></clipPath></defs></svg>