<svg width="161" height="83" fill="none" xmlns="http://www.w3.org/2000/svg"><path d="M160.391 79.033s-28.482.25-65.938.308v-.617c37.456.048 65.938.309 65.938.309zm-93.347.308c-37.456-.058-65.938-.308-65.938-.308s28.482-.26 65.938-.309v.617zm8.648-3.384l-1.465 4.984c-.067.26-.106.425-.106.492 0 .077.02.145.077.222a.384.384 0 00.172.144c.067.03.25.049.565.058l-.047.154h-2.979l.048-.154c.297 0 .508-.029.622-.067a.575.575 0 00.278-.222c.077-.096.163-.308.259-.627l.862-2.96c.134-.443.2-.684.21-.712a.867.867 0 00.03-.213c0-.135-.04-.24-.125-.318-.077-.077-.192-.115-.336-.115-.076 0-.22.01-.44.038l-.029-.164 2.222-.54h.182zm.833 6.18v-.174c.44-.125.852-.366 1.236-.723.383-.356.727-.877 1.034-1.561a2.148 2.148 0 01-.7.144c-.325 0-.603-.125-.823-.376-.22-.25-.335-.597-.335-1.05 0-.579.172-1.119.498-1.6.393-.589.929-.878 1.59-.878.45 0 .823.154 1.091.463.278.308.422.751.422 1.33a4.02 4.02 0 01-.412 1.783 4.642 4.642 0 01-1.034 1.456 4.504 4.504 0 01-1.331.897 3.63 3.63 0 01-1.236.289zm2.414-2.786c.2-.52.364-1.051.488-1.59.086-.377.134-.676.134-.917 0-.221-.048-.385-.144-.5a.473.473 0 00-.354-.165.46.46 0 00-.306.126c-.154.134-.288.404-.422.81-.2.636-.297 1.166-.297 1.59a.8.8 0 00.182.54.404.404 0 00.335.173c.096 0 .23-.029.384-.067zm2.777-.55l.057-.192c.412-.058.738-.145.987-.26.335-.145.574-.319.718-.512a.994.994 0 00.23-.626.702.702 0 00-.21-.502.676.676 0 00-.508-.202.828.828 0 00-.44.125c-.135.087-.279.232-.441.444l-.173-.087c.24-.366.489-.636.728-.79a1.47 1.47 0 01.824-.242c.383 0 .699.107.938.328.24.222.355.482.355.781 0 .241-.058.453-.173.627a1.463 1.463 0 01-.517.472c-.163.096-.421.193-.776.29.316.144.546.298.68.472.192.26.287.578.287.944 0 .685-.296 1.254-.89 1.707-.489.385-1.063.568-1.714.568-.355 0-.613-.067-.786-.192a.432.432 0 01-.182-.367c0-.135.039-.24.134-.328a.5.5 0 01.345-.134.51.51 0 01.201.048c.106.048.278.144.498.289.22.154.402.231.546.231.172 0 .335-.096.47-.28.2-.27.306-.607.306-1.021a1.64 1.64 0 00-.201-.83c-.125-.24-.287-.423-.489-.53-.2-.115-.469-.192-.804-.23zm7.872-2.882v.164a2.88 2.88 0 00-1.178.665c-.421.395-.785.935-1.092 1.62.278-.087.508-.135.7-.135.335 0 .603.125.823.376.22.24.326.588.326 1.04 0 .589-.163 1.119-.489 1.61-.392.589-.929.878-1.59.878-.45 0-.813-.154-1.091-.463-.278-.318-.412-.762-.412-1.33 0-.617.134-1.215.402-1.784a4.643 4.643 0 011.035-1.455 4.646 4.646 0 011.34-.907c.374-.154.786-.25 1.226-.28zm-2.404 2.786c-.2.52-.364 1.05-.488 1.59-.086.367-.134.675-.134.916 0 .222.048.386.144.492a.43.43 0 00.354.164.43.43 0 00.297-.116c.153-.135.287-.405.421-.81.192-.636.297-1.166.297-1.59a.8.8 0 00-.182-.54.4.4 0 00-.326-.174c-.105 0-.23.02-.383.068zM1.125 61.035v6.44h.69l1.187-3.105c.25-.656.546-1.36.767-2.16h.019c-.058.859-.077 1.659-.077 3.037v2.227h.66v-6.44h-.68l-1.148 3.008c-.268.694-.604 1.552-.824 2.246H1.7c.058-1.012.087-1.831.087-2.95v-2.303h-.66zm5.067 6.44h.727V61.69h1.16v-.655H5.032v.655h1.159v5.784zm4.233-1.929l.421 1.928h.718l-1.417-6.44h-.795l-1.456 6.44h.7l.42-1.928h1.409zm-1.303-.598l.326-1.629c.086-.434.182-.983.258-1.475h.039c.076.482.162 1.012.258 1.475l.326 1.63H9.122zm3.534-3.913v2.94c0 1.59-.105 2.439-.488 2.776a.764.764 0 01-.345.164l.143.627c.23 0 .422-.078.585-.203.718-.51.775-1.793.775-3.47V61.67h1.341v5.803h.728v-6.44h-2.739zm3.879 0v6.41c.2.039.488.068.948.068.766 0 1.34-.241 1.714-.675.287-.337.45-.781.45-1.36 0-1.175-.737-1.908-1.896-1.908-.192 0-.354.01-.488.02v-2.556h-.728zm.728 3.171c.105-.02.23-.029.363-.029.786 0 1.274.55 1.274 1.34 0 .8-.469 1.388-1.283 1.388-.125 0-.23 0-.354-.029v-2.67zm3.514 3.268a2.91 2.91 0 00.163-.569c.134-.578.192-1.532.527-1.947.182-.231.43-.299.728-.299h.258v2.815h.728v-6.353c-.306-.087-.69-.115-1.034-.115-.517 0-.948.135-1.274.385-.373.29-.622.781-.622 1.417 0 .868.469 1.379 1.082 1.572v.019a1.012 1.012 0 00-.489.308c-.421.521-.45 1.427-.613 2.092a4.296 4.296 0 01-.21.675h.756zm1.676-3.383c-.095.01-.162.01-.249.01-.699 0-1.216-.493-1.216-1.273 0-.695.345-1.234 1.092-1.234.172 0 .278.019.373.038v2.459zm1.868-3.056v6.44h.728v-3.009h1.781v3.008h.728v-6.44h-.728v2.758h-1.781v-2.758h-.728zm7.039 5.697a1.575 1.575 0 01-.67.144c-.776 0-1.495-.645-1.495-2.612s.795-2.641 1.475-2.641c.326 0 .489.067.642.135l.163-.617c-.134-.087-.412-.164-.795-.164-1.006 0-2.25.81-2.25 3.355 0 2.188.89 3.2 2.135 3.2.393 0 .709-.067.91-.173l-.115-.627zm.862-5.697v6.44h.718v-2.97h.105c.757 0 .977.588 1.13 1.36.116.549.211 1.185.364 1.61h.738c-.192-.56-.287-1.187-.421-1.794-.163-.78-.422-1.456-1.198-1.63l1.552-3.017h-.785l-1.36 2.922h-.125v-2.922h-.718zm5.21-.078c-1.111 0-1.868 1.157-1.868 3.288 0 2.169.709 3.306 1.762 3.306 1.025 0 1.849-.925 1.849-3.345 0-2.053-.651-3.249-1.743-3.249zm-.067.646c.833 0 1.053 1.427 1.053 2.632 0 1.263-.22 2.66-1.044 2.66-.804 0-1.053-1.31-1.053-2.64 0-1.312.249-2.652 1.044-2.652zm4.999 2.189h-1.59V61.67h1.695v-.636h-2.423v6.44h2.538v-.647h-1.81v-2.41h1.59v-.626zm6.723-2.758v6.411c.201.039.479.068.958.068.747 0 1.33-.222 1.695-.656.297-.328.46-.8.46-1.378 0-.608-.202-1.08-.546-1.408-.326-.328-.805-.501-1.36-.501-.163 0-.316.01-.48.029V61.67h1.974v-.636h-2.701zm.728 3.172c.124-.02.249-.029.354-.029.402 0 .719.154.939.395.22.232.345.56.345.945 0 .376-.106.704-.297.955-.211.27-.537.433-.977.433-.125 0-.24 0-.364-.029v-2.67zm4.827-3.249c-1.111 0-1.868 1.157-1.868 3.288 0 2.169.709 3.306 1.762 3.306 1.025 0 1.849-.925 1.849-3.345 0-2.053-.652-3.249-1.743-3.249zm-.067.646c.833 0 1.053 1.427 1.053 2.632 0 1.263-.22 2.66-1.044 2.66-.804 0-1.053-1.31-1.053-2.64 0-1.312.249-2.652 1.044-2.652zm2.672 5.871h.727v-2.641c.106.01.202.01.326.01.565 0 1.15-.232 1.504-.714.249-.328.383-.723.383-1.32 0-.55-.154-1.023-.47-1.321-.335-.338-.823-.482-1.407-.482-.412 0-.767.048-1.063.125v6.343zm.727-5.823c.096-.028.24-.048.412-.048.805 0 1.073.598 1.073 1.253 0 .907-.479 1.389-1.197 1.389a1.2 1.2 0 01-.288-.03v-2.564zm2.49-.617l1.428 4.329c.047.145.047.26.009.366-.134.463-.479 1.196-1.006 1.196a.878.878 0 01-.181-.02l-.039.608c.096.029.201.038.335.038.48 0 .92-.376 1.198-.925.44-.868.699-2.015.9-2.728l.756-2.864h-.737l-.565 2.594c-.086.405-.163.829-.24 1.137h-.028c-.086-.356-.163-.713-.288-1.118l-.756-2.612h-.785zm4.262 0v1.456c0 .935-.048 1.784-.2 2.613a8.487 8.487 0 01-.508 1.735l-.422.01.029 1.957h.584l.038-1.33h2.806l.048 1.33h.575l.038-1.958-.43-.01v-5.803h-2.558zm.661.637h1.178v5.157h-1.8c.191-.51.344-1.06.45-1.629.134-.79.172-1.658.172-2.564v-.964zm4.731-.714c-1.11 0-1.867 1.157-1.867 3.288 0 2.169.708 3.306 1.771 3.306 1.015 0 1.84-.925 1.84-3.345 0-2.053-.652-3.249-1.744-3.249zm-.067.646c.833 0 1.054 1.427 1.054 2.632 0 1.263-.22 2.66-1.044 2.66-.795 0-1.054-1.31-1.054-2.64 0-1.312.259-2.652 1.044-2.652zm2.682 5.842c.191.039.478.068.948.068.728 0 1.331-.174 1.685-.588.288-.309.45-.743.45-1.273 0-.848-.44-1.446-1.178-1.648v-.02c.623-.25.987-.77.987-1.436 0-.453-.144-.839-.421-1.09-.336-.327-.834-.452-1.408-.452-.403 0-.767.048-1.063.125v6.314zm.727-5.822c.087-.03.211-.049.384-.049.775 0 1.053.463 1.053 1.051 0 .685-.517 1.138-1.11 1.138h-.327v-2.14zm0 2.709h.317c.68.01 1.292.424 1.292 1.32 0 .83-.488 1.273-1.245 1.273a1.63 1.63 0 01-.364-.039v-2.554zm5.373 1.214l.431 1.928h.719l-1.418-6.44h-.804l-1.456 6.44h.699l.421-1.928h1.408zm-1.302-.598l.335-1.629c.076-.434.172-.983.249-1.475h.038c.077.482.163 1.012.259 1.475l.325 1.63h-1.206zm3.237-3.913v6.44h.728v-3.009h1.79v3.008h.728v-6.44h-.727v2.758h-1.791v-2.758h-.728zm4.376 0v6.44h.69l1.197-3.105c.24-.656.536-1.36.766-2.16h.02c-.058.859-.077 1.659-.077 3.037v2.227h.651v-6.44h-.68l-1.15 3.008c-.258.694-.603 1.552-.823 2.246h-.01c.049-1.012.077-1.831.077-2.95v-2.303h-.66zm6.714 2.757h-1.6V61.67h1.705v-.636h-2.432v6.44h2.547v-.647h-1.82v-2.41h1.6v-.626zm3.16-2.758v1.456c0 .935-.038 1.784-.191 2.613a8.525 8.525 0 01-.517 1.735l-.422.01.039 1.957h.574l.038-1.33h2.816l.048 1.33h.565l.038-1.958-.421-.01v-5.803h-2.567zm.67.637h1.179v5.157h-1.81a9.71 9.71 0 00.46-1.629c.133-.79.172-1.658.172-2.564v-.964zm3.448-.636v2.94c0 1.59-.105 2.439-.498 2.776a.687.687 0 01-.335.164l.144.627c.22 0 .421-.078.584-.203.718-.51.776-1.793.776-3.47V61.67h1.341v5.803h.728v-6.44h-2.74zm4.176 6.44c.086-.184.134-.377.172-.57.125-.578.182-1.532.518-1.947.191-.231.431-.299.727-.299h.269v2.815h.718v-6.353c-.307-.087-.69-.115-1.034-.115-.508 0-.949.135-1.265.385-.383.29-.622.781-.622 1.417 0 .868.46 1.379 1.073 1.572v.019a.983.983 0 00-.479.308c-.431.521-.46 1.427-.613 2.092a3.499 3.499 0 01-.221.675h.757zm1.686-3.384c-.096.01-.163.01-.259.01-.699 0-1.207-.493-1.207-1.273 0-.695.336-1.234 1.083-1.234.172 0 .287.019.383.038v2.459zm6.004 2.64a1.538 1.538 0 01-.67.145c-.776 0-1.494-.645-1.494-2.612s.795-2.641 1.475-2.641c.335 0 .488.067.642.135l.162-.617c-.134-.087-.411-.164-.795-.164-1.005 0-2.25.81-2.25 3.355 0 2.188.891 3.2 2.136 3.2.402 0 .708-.067.909-.173l-.115-.627zm3.094-1.185l.421 1.928h.718l-1.417-6.44h-.804l-1.456 6.44h.699l.431-1.928h1.408zm-1.303-.598l.326-1.629c.086-.434.182-.983.259-1.475h.038c.076.482.153 1.012.249 1.475l.335 1.63h-1.207zm3.534-3.913v2.94c0 1.59-.105 2.439-.498 2.776a.728.728 0 01-.335.164l.144.627c.22 0 .421-.078.584-.203.718-.51.776-1.793.776-3.47V61.67h1.34v5.803h.728v-6.44h-2.739zm5.488-.078c-1.121 0-1.868 1.157-1.868 3.288 0 2.169.709 3.306 1.763 3.306 1.024 0 1.838-.925 1.838-3.345 0-2.053-.651-3.249-1.733-3.249zm-.067.646c.833 0 1.053 1.427 1.053 2.632 0 1.263-.22 2.66-1.044 2.66-.804 0-1.063-1.31-1.063-2.64 0-1.312.259-2.652 1.054-2.652zm2.672-.569v6.44h.728v-3.008h1.791v3.008h.727v-6.44h-.727v2.758h-1.791v-2.758h-.728zm6.55 4.512l.422 1.928h.718l-1.417-6.44h-.795l-1.456 6.44h.699l.422-1.928h1.407zm-1.302-.598l.326-1.629c.086-.434.182-.983.258-1.475h.039c.076.482.162 1.012.258 1.475l.326 1.63h-1.207zm4.721-3.913v6.44h.719v-2.97h.115c.756 0 .977.588 1.13 1.36.105.549.21 1.185.364 1.61h.737c-.201-.56-.297-1.187-.421-1.794-.163-.78-.422-1.456-1.207-1.63l1.561-3.017h-.785l-1.36 2.922h-.134v-2.922h-.719zm3.697 6.44h.728v-2.642c.105.01.201.01.326.01.565 0 1.149-.232 1.503-.714.24-.328.383-.723.383-1.32 0-.55-.162-1.023-.469-1.321-.335-.338-.824-.482-1.408-.482-.421 0-.766.048-1.063.125v6.343zm.728-5.823c.096-.03.239-.049.412-.049.795 0 1.072.598 1.072 1.253 0 .907-.478 1.389-1.197 1.389a1.2 1.2 0 01-.287-.03v-2.564zm4.712 3.894l.421 1.928h.719l-1.418-6.44h-.804l-1.456 6.44h.699l.422-1.928h1.417zm-1.312-.598l.335-1.629c.086-.434.182-.983.259-1.475h.028c.077.482.163 1.012.259 1.475l.335 1.63h-1.216zm5.717 1.784a1.504 1.504 0 01-.67.144c-.776 0-1.494-.645-1.494-2.612s.795-2.641 1.475-2.641c.335 0 .498.067.641.135l.163-.617c-.134-.087-.402-.164-.795-.164-.996 0-2.25.81-2.25 3.355 0 2.188.89 3.2 2.135 3.2.403 0 .709-.067.91-.173l-.115-.627zm2.308-5.775c-1.111 0-1.867 1.157-1.867 3.288 0 2.169.709 3.306 1.762 3.306 1.025 0 1.848-.925 1.848-3.345 0-2.053-.651-3.249-1.743-3.249zm-.067.646c.834 0 1.054 1.427 1.054 2.632 0 1.263-.22 2.66-1.044 2.66-.804 0-1.054-1.31-1.054-2.64 0-1.312.25-2.652 1.044-2.652zm3.209 5.871h.728V61.69h1.158v-.655h-3.055v.655h1.169v5.784zm2.595-6.44v6.411c.201.039.479.068.919.068.757 0 1.341-.241 1.705-.675.287-.337.46-.79.46-1.369 0-1.157-.757-1.9-1.896-1.9-.134 0-.307.01-.46.03v-2.564h-.728zm.728 3.172c.105-.02.23-.029.354-.029.747 0 1.245.54 1.245 1.34s-.459 1.388-1.254 1.388c-.115 0-.221 0-.345-.029v-2.67zm2.94-3.172v6.44h.728v-6.44h-.728zm-113.162-.077c-1.12 0-1.877 1.157-1.877 3.288 0 2.169.709 3.306 1.772 3.306 1.015 0 1.838-.925 1.838-3.345 0-2.053-.65-3.249-1.733-3.249zm-.067.646c.824 0 1.044 1.427 1.044 2.632 0 1.263-.22 2.66-1.034 2.66-.805 0-1.063-1.31-1.063-2.64 0-1.312.258-2.652 1.053-2.652zm86.729-33.548l-7.096 25.73h27.754l7.097-25.73h-27.755zM31.149 52.792c1.753-.183 2.433-1.166 3.132-3.663 2.04-7.25 4.942-17.43 5.009-18.51.086-1.34-1.16-1.56-2.682-1.6l.259-.963h7.575l1.37 18.663h.067L57.39 28.065h7.23l-.267.964c-1.667.077-2.48.742-3.036 2.642-.556 1.899-4.913 16.908-5.028 18.769-.086 1.34.804 2.217 2.73 2.362l-.269.964H48.36l.258-.964c2.432-.338 3.093-1.504 3.725-3.924l4.616-17.101-.067-.03-13.618 22.038H42.22l-1.513-21.94h-.067c-2.155 8.589-4.501 15.8-4.654 18.258-.106 1.822 1.197 2.467 2.844 2.69l-.259.963h-7.68l.258-.964zm40.003-13.168c.058-1.215-.287-2.14-1.59-2.15-2.978 0-5.774 7.76-5.947 11.192-.095 1.86.182 2.902 1.724 2.902 3.63 0 5.708-9.727 5.813-11.944zm1.35-3.51l3.372.01c-1.839 6.72-3.84 13.622-3.888 14.586-.02.395.2.578.488.578.46 0 1.322-.82 2.231-2.11l.46.539c-.776 1.244-2.643 4.078-4.77 4.068-1.244 0-1.8-.713-1.723-2.217.02-.386.105-.752.153-1.109h-.096c-1.235 1.822-2.978 3.326-5.037 3.326-2.653 0-3.946-2.256-3.792-5.263.22-4.54 4.328-12.407 9.395-12.407 1.637 0 2.375 1.002 2.739 1.542l.469-1.542zm7.461-7.403c1.35-.135 5.296-.675 5.785-.675.163 0 .258.077.249.328-.02.28-.364 1.427-.651 2.468-2.596 9.65-5.364 18.875-5.411 19.849-.02.357.162.607.526.607 1.044 0 2.011-1.86 2.366-2.439l.603.434c-.613 1.215-2.346 4.502-5.19 4.502-1.408 0-2.155-.752-2.088-2.072.134-2.68 5.44-19.532 5.516-21.064.048-1.003-.575-1.109-1.877-1.148l.172-.79zm8.706 16.456c2.231-.781 6.483-2.892 6.646-6.15.039-.859-.421-1.533-1.264-1.533-2.681 0-4.913 5.427-5.382 7.683zm7.355 4.724c-1.561 1.899-4.214 3.904-7.221 3.894-2.844 0-4.578-2.005-4.406-5.475.288-5.968 5.24-12.195 10.344-12.186 2.346 0 3.869 1.003 3.763 3.143-.22 4.512-7.02 6.478-10.132 7.26-.125.645-.23 1.32-.259 1.898-.095 1.967.757 3.22 2.624 3.22 1.178 0 2.912-.752 4.578-2.651l.709.897zm4.08-13.053c2.949-.646 5.21-2.507 6.368-5.476h1.044l-1.379 5.186h3.362l-.393 1.649h-3.39c-1.542 5.582-3.362 11.51-3.419 12.484-.019.424.22.752.613.752.651 0 1.628-1.041 2.806-2.651l.584.54c-.862 1.282-3.036 4.473-5.622 4.463-1.57 0-2.25-.675-2.164-2.14.096-1.61 2.069-7.876 3.601-13.448l-2.318-.01.307-1.35zm10.065 0c2.95-.646 5.22-2.507 6.369-5.476h1.044l-1.379 5.186h3.371l-.393 1.649h-3.4c-1.532 5.582-3.361 11.51-3.409 12.484-.029.424.211.752.603.752.661 0 1.638-1.041 2.806-2.651l.594.54c-.862 1.282-3.045 4.463-5.631 4.463-1.561 0-2.241-.675-2.155-2.14.086-1.61 2.059-7.876 3.591-13.448h-2.317l.306-1.36zm15.572-8.898c1.14 0 2.059 1.041 2.021 2.294-.029 1.253-1.005 2.294-2.145 2.294-1.14 0-2.059-1.04-2.021-2.294.029-1.253 1.006-2.294 2.145-2.294zm-5.727 9.023c2.739-.357 5.402-.897 5.823-.897.192 0 .393.068.383.251-.009.25-.143.608-.364 1.36-.249.973-3.371 11.269-3.409 12.85-.019.607.172.752.536.752.91 0 1.839-1.832 2.184-2.41l.603.395c-.584 1.186-2.241 4.521-5.076 4.521-1.273 0-2.03-.82-1.992-2.188.058-2.044 3.094-11.906 3.113-12.696.029-.935-.584-1.109-1.992-1.148l.191-.79zm-87.15-13.892c.364 0 .68-.038.68-.462 0-.367-.345-.405-.642-.405h-.584v.867h.546zm-.546 1.688h-.48v-2.97h1.121c.709 0 1.073.251 1.073.849 0 .54-.326.761-.766.81l.823 1.31h-.545l-.767-1.272h-.46v1.273zm.526-3.75c-1.149 0-2.04.906-2.04 2.217 0 1.214.776 2.207 2.04 2.207 1.14 0 2.04-.896 2.04-2.207s-.9-2.217-2.04-2.217zm0 4.887c-1.522 0-2.614-1.147-2.614-2.67 0-1.62 1.207-2.68 2.614-2.68 1.399 0 2.605 1.06 2.605 2.68 0 1.61-1.206 2.67-2.605 2.67zM44.682.166l-7.097 25.73h27.754L72.436.166H44.682zM7.695 28.057L.6 53.785h27.754l7.096-25.73H7.695z" fill="#fff"/><path d="M134.121 40.51a1.457 1.457 0 01-.632.444 2.182 2.182 0 01-.756.125c-.776 0-1.379-.173-1.801-.52-.431-.347-.642-.849-.642-1.514a2.793 2.793 0 01.805-1.957c.259-.25.575-.453.948-.607a3.274 3.274 0 011.255-.231c.325 0 .632.038.91.096.287.068.526.164.737.299.211.135.383.308.508.51.124.203.181.454.181.733h-1.206c-.019-.28-.125-.482-.316-.607-.201-.116-.47-.173-.805-.173-.306 0-.574.057-.804.173a1.798 1.798 0 00-.891 1.09 2.124 2.124 0 00-.105.674c0 .164.019.309.067.453a.94.94 0 00.23.376c.095.116.23.203.383.27.153.058.345.097.565.097.23 0 .431-.03.594-.078.172-.048.316-.115.44-.202.115-.087.22-.193.297-.318a1.74 1.74 0 00.192-.405h-1.265l.192-.752h2.337l-.632 2.497h-.767v-.472h-.019zm5.411-4.145c.249-.01.479.01.68.058.201.039.374.106.517.203a.974.974 0 01.336.376c.076.154.115.347.115.568 0 .155-.029.309-.096.453a1.21 1.21 0 01-.259.376 1.48 1.48 0 01-.402.27 1.473 1.473 0 01-.508.145v.01c.221.067.374.163.451.318.076.144.114.318.114.501 0 .106 0 .222-.019.366-.009.145-.019.29-.019.434 0 .106.01.203.019.299.01.087.029.174.058.241h-1.178c-.01-.058-.029-.116-.039-.164-.009-.048-.009-.096-.009-.145 0-.163.009-.318.029-.472.019-.154.028-.318.028-.472a.567.567 0 00-.057-.27.406.406 0 00-.163-.174.837.837 0 00-.249-.087c-.096-.019-.211-.019-.326-.019h-1.139l-.45 1.803h-1.207l1.149-4.618h2.624zm-.814 2.083c.163 0 .326-.01.47-.039a1.52 1.52 0 00.402-.125.818.818 0 00.278-.232.53.53 0 00.095-.327.588.588 0 00-.067-.309.491.491 0 00-.201-.164.777.777 0 00-.287-.077c-.106-.02-.22-.02-.335-.02h-1.15l-.325 1.293h1.12zm3.046-.463c.134-.338.335-.636.594-.897a2.97 2.97 0 01.948-.607 3.269 3.269 0 011.254-.231c.374 0 .709.048 1.015.135.297.077.556.202.767.376.21.163.373.375.488.616.115.251.172.53.172.858 0 .377-.067.743-.201 1.08a2.74 2.74 0 01-.574.916 2.87 2.87 0 01-.948.627c-.374.154-.795.221-1.284.221-.776 0-1.379-.173-1.8-.52-.431-.347-.642-.849-.642-1.514 0-.376.067-.732.211-1.06zm1.072 1.513c.048.145.125.27.23.376a.958.958 0 00.383.27c.154.058.345.097.565.097.297 0 .556-.068.776-.184a1.808 1.808 0 00.891-1.08 2.13 2.13 0 00.115-.674c0-.164-.019-.318-.067-.463a.916.916 0 00-.211-.376 1.078 1.078 0 00-.374-.26 1.458 1.458 0 00-.574-.096c-.307 0-.575.057-.805.173a1.82 1.82 0 00-.565.463 1.87 1.87 0 00-.325.627 2.098 2.098 0 00-.106.674c0 .164.02.309.067.453zm9.156.424a1.84 1.84 0 01-.498.637c-.211.173-.46.308-.757.395-.296.087-.66.125-1.091.125-.259 0-.527-.019-.786-.067a2.606 2.606 0 01-.699-.231 1.368 1.368 0 01-.488-.415 1.092 1.092 0 01-.192-.646c0-.116.019-.231.039-.347.028-.116.057-.231.076-.337l.671-2.67h1.216l-.671 2.67c-.009.038-.028.077-.038.135-.009.048-.029.096-.038.154l-.029.154c-.009.058-.009.096-.009.135a.49.49 0 00.038.193.403.403 0 00.163.202.964.964 0 00.316.164c.124.039.297.068.507.068.249 0 .45-.03.604-.087a.901.901 0 00.373-.222c.096-.096.173-.222.23-.357.048-.144.096-.308.144-.472l.689-2.738h1.207l-.671 2.68a3.847 3.847 0 01-.306.877zm4.156-3.557c.278 0 .537.02.767.068.229.048.44.115.603.221.172.106.306.241.402.415a1.3 1.3 0 01.144.636c0 .26-.058.482-.182.685a1.583 1.583 0 01-.469.51 2.351 2.351 0 01-.68.319 3.196 3.196 0 01-.814.106h-1.494l-.422 1.658h-1.197l1.14-4.618h2.202zm-.296 2.17c.316 0 .555-.068.727-.193.182-.135.269-.338.269-.617a.547.547 0 00-.067-.29.71.71 0 00-.202-.173 1.173 1.173 0 00-.277-.087 3.06 3.06 0 00-.307-.02h-1.034l-.335 1.38h1.226z" fill="#665D52"/></svg>